<?xml version="1.0" ?><svg xmlns="http://www.w3.org/2000/svg" xmlns:xlink="http://www.w3.org/1999/xlink" version="1.1" viewBox="0 0 512 512" style="enable-background:new 0 0 512 512;" xml:space="preserve"><g id="_x30_9_Data_Arrow"><g><linearGradient id="SVGID_1_" gradientUnits="userSpaceOnUse" x1="285.4657" y1="-213.8134" x2="226.0711" y2="890.926"><stop offset="0" style="stop-color:#EAE9FE"/><stop offset="0.4236" style="stop-color:#EEEEFE"/><stop offset="0.8967" style="stop-color:#FBFBFF"/><stop offset="1" style="stop-color:#FFFFFF"/></linearGradient><path style="fill:url(#SVGID_1_);" d="M472.505,264.418c-9.665-7.52-21.338-14-25.833-25.391    c-6.113-15.491,3.658-32.115,9.42-47.74c17.595-47.708-4.987-104.205-45.503-134.932c-77.292-58.617-228.168-38.07-249.252,42.947    c-8.919,34.273,7.061,73.374-9.288,104.789c-20.628,39.638-75.349,42.311-110.593,59.937    c-43.663,21.836-52.4,69.384-21.085,105.584c11.499,13.293,26.213,22.45,36.759,36.974c15.26,21.015,23.818,44.254,44.235,61.589    c28.751,24.41,76.818,30.462,102.271,2.631c14.332-15.672,18.996-38.763,34.641-53.126c20.594-18.906,53.143-16.363,79.349-6.627    c26.206,9.736,50.51,25.457,78.113,29.887c43.157,6.927,89.432-18.396,106.864-58.48    C520.036,342.376,507.002,291.261,472.505,264.418z"/><path style="fill:#2769FD;" d="M351.196,227.774V202.38l-315.133,0c-13.683,0-24.775-11.092-24.775-24.775v-73.828    c0-13.683,11.092-24.775,24.775-24.775l315.133,0V53.608c0-16.475,18.953-25.641,31.835-15.484l110.247,87.207    c9.91,7.804,9.91,22.916,0,30.72l-110.247,87.207C370.149,253.415,351.196,244.249,351.196,227.774z"/><path style="fill:#FF5859;" d="M160.804,458.392v-25.395l315.133,0c13.683,0,24.775-11.092,24.775-24.775v-73.828    c0-13.683-11.092-24.775-24.775-24.775l-315.133,0v-25.395c0-16.475-18.953-25.641-31.835-15.484L18.722,355.949    c-9.91,7.804-9.91,22.916,0,30.72l110.247,87.207C141.851,484.033,160.804,474.867,160.804,458.392z"/><path style="fill:#332E8E;" d="M36.065,207.28h310.23v20.493c0,9.513,5.307,17.998,13.852,22.141    c8.43,4.09,18.377,3.139,25.927-2.813l110.236-87.199c5.913-4.656,9.302-11.657,9.302-19.212s-3.389-14.556-9.292-19.204    L386.068,34.273c-7.451-5.87-17.388-6.952-25.921-2.805c-8.546,4.145-13.852,12.629-13.852,22.14v20.493H36.065    c-16.364,0-29.677,13.313-29.677,29.677v73.827C6.388,193.969,19.701,207.28,36.065,207.28z M16.191,103.778    c0-10.958,8.916-19.874,19.874-19.874h315.131c2.706,0,4.901-2.194,4.901-4.901V53.608c0-5.811,3.114-10.791,8.329-13.32    c5.214-2.529,11.032-1.894,15.566,1.679l110.255,87.215c3.536,2.784,5.562,6.979,5.562,11.509s-2.026,8.724-5.572,11.517    l-110.239,87.201c-4.538,3.58-10.358,4.215-15.572,1.686c-5.214-2.529-8.329-7.509-8.329-13.321v-25.395    c0-2.708-2.195-4.901-4.901-4.901H36.065c-10.958,0-19.874-8.914-19.874-19.872V103.778z"/><path style="fill:#332E8E;" d="M15.68,390.513l110.252,87.214c7.477,5.891,17.416,6.935,25.921,2.805    c8.546-4.145,13.852-12.629,13.852-22.14v-20.493h310.23c16.364,0,29.677-13.312,29.677-29.675v-73.829    c0-16.364-13.313-29.675-29.677-29.675h-310.23v-20.493c0-9.513-5.307-17.998-13.852-22.141    c-8.542-4.144-18.476-3.065-25.927,2.813L15.69,352.098c-5.913,4.656-9.302,11.657-9.302,19.212S9.777,385.865,15.68,390.513z     M21.763,359.793l110.239-87.201c4.435-3.499,10.244-4.27,15.572-1.686c5.214,2.529,8.329,7.509,8.329,13.321v25.395    c0,2.708,2.195,4.901,4.901,4.901h315.131c10.958,0,19.874,8.914,19.874,19.872v73.829c0,10.958-8.916,19.872-19.874,19.872    H160.804c-2.706,0-4.901,2.194-4.901,4.901v25.395c0,5.811-3.114,10.791-8.329,13.32c-5.214,2.532-11.032,1.895-15.566-1.679    L21.753,382.818c-3.536-2.784-5.562-6.979-5.562-11.509S18.217,362.585,21.763,359.793z"/></g></g><g id="Layer_1"/></svg>