<?xml version="1.0" ?><svg xmlns="http://www.w3.org/2000/svg" xmlns:xlink="http://www.w3.org/1999/xlink" version="1.1" viewBox="0 0 512 512" style="enable-background:new 0 0 512 512;" xml:space="preserve"><g id="_x30_5_Arrows"><g><linearGradient id="SVGID_1_" gradientUnits="userSpaceOnUse" x1="285.4657" y1="-213.814" x2="226.0711" y2="890.9253"><stop offset="0" style="stop-color:#EAE9FE"/><stop offset="0.4236" style="stop-color:#EEEEFE"/><stop offset="0.8967" style="stop-color:#FBFBFF"/><stop offset="1" style="stop-color:#FFFFFF"/></linearGradient><path style="fill:url(#SVGID_1_);" d="M472.505,264.417c-9.665-7.52-21.338-14-25.833-25.391    c-6.113-15.491,3.658-32.115,9.421-47.74c17.595-47.708-4.987-104.205-45.503-134.932    c-77.292-58.617-228.168-38.07-249.252,42.947c-8.919,34.273,7.06,73.374-9.288,104.789    c-20.628,39.638-75.35,42.311-110.593,59.937c-43.664,21.836-52.4,69.384-21.085,105.584    c11.499,13.293,26.213,22.45,36.759,36.974c15.26,21.015,23.818,44.254,44.235,61.589c28.751,24.41,76.819,30.462,102.271,2.631    c14.332-15.672,18.996-38.763,34.641-53.126c20.594-18.906,53.143-16.363,79.349-6.627c26.206,9.736,50.51,25.457,78.113,29.887    c43.158,6.927,89.432-18.396,106.864-58.48C520.036,342.375,507.002,291.261,472.505,264.417z"/><path style="fill:#FF5859;" d="M237.724,146.274l0-17.634l125.342,0c8.447,0,15.294-6.847,15.294-15.294l0-55.377    c0-8.447-6.847-15.294-15.294-15.294l-125.342,0l0-17.634c0-11.462-13.137-17.898-22.131-10.757l-76.796,60.661    c-6.877,5.467-6.877,15.959,0,21.425l76.796,60.661C224.587,164.173,237.724,157.736,237.724,146.274z"/><path style="fill:#5EDB6B;" d="M274.275,486.957l0-17.634l-125.342,0c-8.447,0-15.294-6.847-15.294-15.294l0-55.377    c0-8.447,6.847-15.294,15.294-15.294l125.342,0l0-17.634c0-11.462,13.137-17.898,22.131-10.757l76.796,60.661    c6.877,5.467,6.877,15.959,0,21.425l-76.796,60.661C287.412,504.856,274.275,498.419,274.275,486.957z"/><path style="fill:#2769FD;" d="M365.725,237.724l17.634,0l0,125.342c0,8.447,6.847,15.294,15.294,15.294l55.377,0    c8.447,0,15.294-6.847,15.294-15.294l0-125.342l17.634,0c11.462,0,17.898-13.137,10.757-22.131l-60.661-76.796    c-5.467-6.877-15.959-6.877-21.425,0l-60.661,76.796C347.826,224.587,354.263,237.724,365.725,237.724z"/><path style="fill:#F9BB40;" d="M25.042,274.275l17.634,0l0-125.341c0-8.447,6.847-15.294,15.294-15.294l55.377,0    c8.447,0,15.294,6.847,15.294,15.294l0,125.342l17.634,0c11.462,0,17.898,13.137,10.757,22.131l-60.661,76.796    c-5.467,6.877-15.959,6.877-21.425,0l-60.661-76.796C7.143,287.412,13.58,274.275,25.042,274.275z"/><path style="fill:#332E8E;" d="M135.759,100.218l76.787,60.653c12.17,9.661,30.081,1.006,30.081-14.596v-12.732h120.439    c11.137,0,20.196-9.059,20.196-20.196V57.969c0-11.137-9.059-20.196-20.196-20.196H242.625V25.041    c0-7.228-4.027-13.663-10.511-16.791c-6.441-3.111-13.942-2.269-19.558,2.187l-76.809,60.672c-4.453,3.54-7.009,8.844-7.009,14.55    S131.293,96.668,135.759,100.218z M141.835,78.793l76.807-60.67c1.611-1.281,3.493-1.935,5.402-1.935    c1.281,0,2.574,0.294,3.807,0.889c3.111,1.503,4.97,4.48,4.97,7.965v17.634c0,2.708,2.194,4.901,4.901,4.901h125.342    c5.731,0,10.393,4.662,10.393,10.393v55.376c0,5.731-4.662,10.393-10.393,10.393h-125.34c-2.708,0-4.901,2.194-4.901,4.901v17.634    c0,3.485-1.857,6.462-4.97,7.963c-3.075,1.484-6.521,1.091-9.222-1.053l-76.784-60.651c-2.101-1.671-3.308-4.176-3.308-6.875    S139.746,80.454,141.835,78.793z"/><path style="fill:#332E8E;" d="M279.884,503.749c2.582,1.246,5.331,1.859,8.061,1.859c4.088,0,8.132-1.374,11.499-4.046    l76.809-60.67c4.453-3.542,7.009-8.846,7.009-14.551c0-5.704-2.556-11.008-7.022-14.559l-76.785-60.653    c-5.627-4.469-13.13-5.31-19.569-2.195c-6.484,3.129-10.511,9.564-10.511,16.791v12.732H148.933    c-11.135,0-20.195,9.059-20.195,20.195v55.376c-0.002,5.396,2.1,10.467,5.915,14.282c3.813,3.815,8.886,5.916,14.28,5.916h120.441    v12.732C269.374,494.184,273.401,500.619,279.884,503.749z M148.933,464.423c-2.776,0-5.387-1.082-7.349-3.044    c-1.963-1.963-3.043-4.573-3.043-7.349v-55.378c0-5.73,4.662-10.392,10.392-10.392h125.342c2.708,0,4.901-2.194,4.901-4.901    v-17.634c0-3.485,1.859-6.462,4.97-7.965c3.075-1.477,6.521-1.09,9.221,1.055l76.784,60.651c2.101,1.671,3.308,4.177,3.308,6.875    c0,2.7-1.206,5.206-3.295,6.867l-76.806,60.669c-2.696,2.14-6.143,2.531-9.211,1.045c-3.113-1.503-4.97-4.479-4.97-7.963v-17.634    c0-2.708-2.194-4.901-4.901-4.901H148.933z"/><path style="fill:#332E8E;" d="M348.934,232.116c3.13,6.483,9.564,10.51,16.791,10.51h12.732v120.439    c0,11.137,9.059,20.196,20.196,20.196h55.378c11.135,0,20.195-9.059,20.195-20.196V242.626h12.732    c7.228,0,13.661-4.027,16.791-10.51c3.113-6.446,2.272-13.945-2.187-19.561l-60.672-76.806c-3.54-4.456-8.844-7.011-14.55-7.011    s-11.009,2.554-14.559,7.022l-60.653,76.785C346.662,218.171,345.821,225.67,348.934,232.116z M358.815,218.63l60.651-76.784    c1.671-2.101,4.176-3.306,6.875-3.306s5.205,1.205,6.866,3.295l60.67,76.804c2.14,2.695,2.531,6.138,1.045,9.213    c-1.501,3.113-4.479,4.97-7.963,4.97h-17.634c-2.708,0-4.901,2.194-4.901,4.901v125.34c0,5.731-4.662,10.393-10.392,10.393    h-55.378c-5.731,0-10.393-4.662-10.393-10.393v-125.34c0-2.708-2.194-4.901-4.901-4.901h-17.634c-3.485,0-6.462-1.857-7.963-4.97    C356.276,224.778,356.667,221.335,358.815,218.63z"/><path style="fill:#332E8E;" d="M71.109,376.252c3.54,4.453,8.844,7.009,14.55,7.009s11.009-2.556,14.559-7.022l60.653-76.785    c4.467-5.626,5.308-13.125,2.195-19.571c-3.13-6.483-9.564-10.51-16.791-10.51h-12.732V148.933    c0-11.135-9.059-20.195-20.196-20.195H57.97c-11.137,0-20.196,9.059-20.196,20.195v120.441H25.041    c-7.228,0-13.661,4.027-16.791,10.511c-3.113,6.446-2.27,13.943,2.187,19.558L71.109,376.252z M17.078,284.146    c1.503-3.111,4.479-4.97,7.963-4.97h17.634c2.708,0,4.901-2.194,4.901-4.901V148.933c0-5.73,4.662-10.392,10.393-10.392h55.376    c5.731,0,10.393,4.662,10.393,10.392v125.342c0,2.708,2.194,4.901,4.901,4.901h17.634c3.485,0,6.462,1.857,7.963,4.97    c1.485,3.075,1.095,6.518-1.053,9.222L92.534,370.15c-1.671,2.101-4.176,3.308-6.875,3.308s-5.205-1.206-6.866-3.295    l-60.67-76.807C15.984,290.664,15.593,287.221,17.078,284.146z"/></g></g><g id="Layer_1"/></svg>